<svg xmlns="http://www.w3.org/2000/svg" xmlns:xlink="http://www.w3.org/1999/xlink" width="700" zoomAndPan="magnify" viewBox="0 0 525 477.749988" height="637" preserveAspectRatio="xMidYMid meet" version="1.0"><defs><filter x="0%" y="0%" width="100%" height="100%" id="b5fc96f095"><feColorMatrix values="0 0 0 0 1 0 0 0 0 1 0 0 0 0 1 0 0 0 1 0" color-interpolation-filters="sRGB"/></filter><g/><clipPath id="34744aa8e2"><path d="M 111.585938 74.996094 L 414 74.996094 L 414 336 L 111.585938 336 Z M 111.585938 74.996094 " clip-rule="nonzero"/></clipPath><clipPath id="5b22991fac"><path d="M 111.585938 335.4375 L 111.585938 273.917969 L 187.042969 241.105469 L 262.5 165.230469 L 337.957031 161.128906 L 413.414062 74.996094 L 413.414062 335.4375 L 111.585938 335.4375 " clip-rule="nonzero"/></clipPath><mask id="8f61bc7e0a"><g filter="url(#b5fc96f095)"><rect x="-52.5" width="630" fill="#000000" y="-47.774999" height="573.299985" fill-opacity="0.6471"/></g></mask><clipPath id="b0dfd4f8f6"><path d="M 0.585938 0.996094 L 302.441406 0.996094 L 302.441406 261.585938 L 0.585938 261.585938 Z M 0.585938 0.996094 " clip-rule="nonzero"/></clipPath><clipPath id="1c9b13460d"><path d="M 0.585938 261.4375 L 0.585938 199.917969 L 76.042969 167.105469 L 151.5 91.230469 L 226.957031 87.128906 L 302.414062 0.996094 L 302.414062 261.4375 L 0.585938 261.4375 " clip-rule="nonzero"/></clipPath><clipPath id="644efca42b"><rect x="0" width="303" y="0" height="262"/></clipPath><clipPath id="3f43ec431d"><path d="M 111.585938 161 L 414 161 L 414 336 L 111.585938 336 Z M 111.585938 161 " clip-rule="nonzero"/></clipPath><clipPath id="913c21f015"><path d="M 111.585938 335.4375 L 111.585938 310.828125 L 187.042969 302.625 L 262.5 216.496094 L 337.957031 243.15625 L 413.414062 161.128906 L 413.414062 335.4375 L 111.585938 335.4375 " clip-rule="nonzero"/></clipPath><mask id="4864da45ff"><g filter="url(#b5fc96f095)"><rect x="-52.5" width="630" fill="#000000" y="-47.774999" height="573.299985" fill-opacity="0.6471"/></g></mask><clipPath id="75580f36b8"><path d="M 0.585938 0 L 302.441406 0 L 302.441406 174.585938 L 0.585938 174.585938 Z M 0.585938 0 " clip-rule="nonzero"/></clipPath><clipPath id="b533d0716d"><path d="M 0.585938 174.4375 L 0.585938 149.828125 L 76.042969 141.625 L 151.5 55.496094 L 226.957031 82.15625 L 302.414062 0.128906 L 302.414062 174.4375 L 0.585938 174.4375 " clip-rule="nonzero"/></clipPath><clipPath id="a34541c680"><rect x="0" width="303" y="0" height="175"/></clipPath><clipPath id="00eb7627d1"><path d="M 111.585938 257 L 414 257 L 414 336 L 111.585938 336 Z M 111.585938 257 " clip-rule="nonzero"/></clipPath><clipPath id="2e684fb9b3"><path d="M 111.585938 335.4375 L 187.042969 310.828125 L 262.5 257.511719 L 337.957031 273.917969 L 413.414062 263.664062 L 413.414062 335.4375 L 111.585938 335.4375 " clip-rule="nonzero"/></clipPath><mask id="41ef313abd"><g filter="url(#b5fc96f095)"><rect x="-52.5" width="630" fill="#000000" y="-47.774999" height="573.299985" fill-opacity="0.6471"/></g></mask><clipPath id="2803ec7e27"><path d="M 0.585938 0.386719 L 302.441406 0.386719 L 302.441406 78.585938 L 0.585938 78.585938 Z M 0.585938 0.386719 " clip-rule="nonzero"/></clipPath><clipPath id="5dab133619"><path d="M 0.585938 78.4375 L 76.042969 53.828125 L 151.5 0.511719 L 226.957031 16.917969 L 302.414062 6.664062 L 302.414062 78.4375 L 0.585938 78.4375 " clip-rule="nonzero"/></clipPath><clipPath id="b2f7fef928"><rect x="0" width="303" y="0" height="79"/></clipPath><clipPath id="b28036188e"><path d="M 111.585938 74.996094 L 428 74.996094 L 428 290 L 111.585938 290 Z M 111.585938 74.996094 " clip-rule="nonzero"/></clipPath><clipPath id="d26ed277c7"><path d="M 111.585938 145 L 428 145 L 428 327 L 111.585938 327 Z M 111.585938 145 " clip-rule="nonzero"/></clipPath><clipPath id="d6c2a344c7"><path d="M 111.585938 241 L 428 241 L 428 335.113281 L 111.585938 335.113281 Z M 111.585938 241 " clip-rule="nonzero"/></clipPath></defs><g fill="#545454" fill-opacity="1"><g transform="translate(142.880544, 386.890908)"><g><path d="M 20.96875 -23.984375 C 18.21875 -25.503906 15.828125 -26.265625 13.796875 -26.265625 C 12.421875 -26.265625 11.351562 -25.988281 10.59375 -25.4375 C 9.832031 -24.894531 9.453125 -24.082031 9.453125 -23 C 9.453125 -22 10.003906 -21.117188 11.109375 -20.359375 C 12.210938 -19.597656 13.679688 -18.875 15.515625 -18.1875 C 17.003906 -17.632812 18.28125 -17.007812 19.34375 -16.3125 C 20.40625 -15.613281 21.285156 -14.644531 21.984375 -13.40625 C 22.691406 -12.175781 23.046875 -10.613281 23.046875 -8.71875 C 23.046875 -7.09375 22.617188 -5.582031 21.765625 -4.1875 C 20.921875 -2.800781 19.679688 -1.695312 18.046875 -0.875 C 16.421875 -0.0625 14.472656 0.34375 12.203125 0.34375 C 10.316406 0.34375 8.441406 0.0664062 6.578125 -0.484375 C 4.710938 -1.046875 2.976562 -1.898438 1.375 -3.046875 L 4.125 -7.90625 C 5.21875 -7.101562 6.460938 -6.441406 7.859375 -5.921875 C 9.265625 -5.410156 10.53125 -5.15625 11.65625 -5.15625 C 12.96875 -5.15625 14.109375 -5.429688 15.078125 -5.984375 C 16.054688 -6.546875 16.546875 -7.457031 16.546875 -8.71875 C 16.546875 -10.351562 15.015625 -11.773438 11.953125 -12.984375 C 10.140625 -13.703125 8.628906 -14.390625 7.421875 -15.046875 C 6.222656 -15.703125 5.1875 -16.644531 4.3125 -17.875 C 3.445312 -19.113281 3.015625 -20.664062 3.015625 -22.53125 C 3.015625 -25.25 3.90625 -27.4375 5.6875 -29.09375 C 7.476562 -30.757812 9.867188 -31.664062 12.859375 -31.8125 C 15.203125 -31.8125 17.160156 -31.546875 18.734375 -31.015625 C 20.316406 -30.484375 21.851562 -29.726562 23.34375 -28.75 Z M 20.96875 -23.984375 "/></g></g></g><g fill="#545454" fill-opacity="1"><g transform="translate(172.236174, 386.890908)"><g><path d="M 36.671875 -32.921875 L 36.671875 0 L 30.4375 0 L 30.4375 -15.09375 L 20.109375 -0.4375 L 20.03125 -0.4375 L 10.09375 -14.140625 L 10.09375 0 L 4.078125 0 L 4.078125 -32.921875 L 4.125 -32.921875 L 20.15625 -10.1875 L 36.578125 -32.921875 Z M 36.671875 -32.921875 "/></g></g></g><g fill="#545454" fill-opacity="1"><g transform="translate(217.279062, 386.890908)"><g><path d="M 19.734375 -6.1875 L 9.234375 -6.1875 L 6.65625 0 L 0.515625 0 L 14.78125 -32.890625 L 15.125 -32.890625 L 29.40625 0 L 22.1875 0 Z M 17.671875 -11.4375 L 14.609375 -19.125 L 11.4375 -11.4375 Z M 17.671875 -11.4375 "/></g></g></g><g fill="#545454" fill-opacity="1"><g transform="translate(251.491293, 386.890908)"><g><path d="M 21.140625 0 L 14.484375 -10.0625 L 10.3125 -10.0625 L 10.3125 0 L 4.078125 0 L 4.078125 -31.640625 L 13.671875 -31.640625 C 17.597656 -31.640625 20.640625 -30.6875 22.796875 -28.78125 C 24.960938 -26.875 26.046875 -24.269531 26.046875 -20.96875 C 26.046875 -19.019531 25.632812 -17.191406 24.8125 -15.484375 C 24 -13.785156 22.75 -12.453125 21.0625 -11.484375 L 28.40625 0 Z M 10.3125 -16.078125 L 14.75 -16.078125 C 16.4375 -16.078125 17.664062 -16.570312 18.4375 -17.5625 C 19.207031 -18.550781 19.59375 -19.617188 19.59375 -20.765625 C 19.59375 -21.910156 19.265625 -23.003906 18.609375 -24.046875 C 17.953125 -25.097656 16.675781 -25.625 14.78125 -25.625 L 10.3125 -25.625 Z M 10.3125 -16.078125 "/></g></g></g><g fill="#545454" fill-opacity="1"><g transform="translate(285.273732, 386.890908)"><g><path d="M 23.25 -31.640625 L 23.25 -25.625 L 15.5625 -25.625 L 15.5625 0 L 9.328125 0 L 9.328125 -25.625 L 1.9375 -25.625 L 1.9375 -31.640625 Z M 23.25 -31.640625 "/></g></g></g><g fill="#545454" fill-opacity="1"><g transform="translate(314.758302, 386.890908)"><g><path d="M 19.734375 -6.1875 L 9.234375 -6.1875 L 6.65625 0 L 0.515625 0 L 14.78125 -32.890625 L 15.125 -32.890625 L 29.40625 0 L 22.1875 0 Z M 17.671875 -11.4375 L 14.609375 -19.125 L 11.4375 -11.4375 Z M 17.671875 -11.4375 "/></g></g></g><g fill="#545454" fill-opacity="1"><g transform="translate(348.970533, 386.890908)"><g><path d="M 4.078125 -31.640625 L 13.546875 -31.640625 C 17.578125 -31.640625 20.894531 -30.859375 23.5 -29.296875 C 26.113281 -27.734375 28.015625 -25.710938 29.203125 -23.234375 C 30.390625 -20.753906 30.984375 -18.097656 30.984375 -15.265625 C 30.984375 -12.222656 30.265625 -9.539062 28.828125 -7.21875 C 27.398438 -4.894531 25.472656 -3.109375 23.046875 -1.859375 C 20.628906 -0.617188 17.976562 0 15.09375 0 L 4.078125 0 Z M 14.015625 -6.015625 C 17.253906 -6.015625 19.816406 -6.84375 21.703125 -8.5 C 23.597656 -10.164062 24.546875 -12.5625 24.546875 -15.6875 C 24.546875 -18.207031 24.019531 -20.210938 22.96875 -21.703125 C 21.925781 -23.191406 20.707031 -24.222656 19.3125 -24.796875 C 17.925781 -25.367188 16.617188 -25.65625 15.390625 -25.65625 L 10.3125 -25.65625 L 10.3125 -6.015625 Z M 14.015625 -6.015625 "/></g></g></g><g clip-path="url(#34744aa8e2)"><g clip-path="url(#5b22991fac)"><g mask="url(#8f61bc7e0a)"><g transform="matrix(1, 0, 0, 1, 111, 74)"><g clip-path="url(#644efca42b)"><g clip-path="url(#b0dfd4f8f6)"><g clip-path="url(#1c9b13460d)"><path fill="#319795" d="M 0.585938 0.996094 L 302.210938 0.996094 L 302.210938 261.113281 L 0.585938 261.113281 Z M 0.585938 0.996094 " fill-opacity="1" fill-rule="nonzero"/></g></g></g></g></g></g></g><g clip-path="url(#3f43ec431d)"><g clip-path="url(#913c21f015)"><g mask="url(#4864da45ff)"><g transform="matrix(1, 0, 0, 1, 111, 161)"><g clip-path="url(#a34541c680)"><g clip-path="url(#75580f36b8)"><g clip-path="url(#b533d0716d)"><path fill="#38b2ac" d="M 0.585938 -86.003906 L 302.210938 -86.003906 L 302.210938 174.113281 L 0.585938 174.113281 Z M 0.585938 -86.003906 " fill-opacity="1" fill-rule="nonzero"/></g></g></g></g></g></g></g><g clip-path="url(#00eb7627d1)"><g clip-path="url(#2e684fb9b3)"><g mask="url(#41ef313abd)"><g transform="matrix(1, 0, 0, 1, 111, 257)"><g clip-path="url(#b2f7fef928)"><g clip-path="url(#2803ec7e27)"><g clip-path="url(#5dab133619)"><path fill="#4fd1c5" d="M 0.585938 -182.003906 L 302.210938 -182.003906 L 302.210938 78.113281 L 0.585938 78.113281 Z M 0.585938 -182.003906 " fill-opacity="1" fill-rule="nonzero"/></g></g></g></g></g></g></g><g clip-path="url(#b28036188e)"><path stroke-linecap="round" transform="matrix(0.922088, 0, 0, 0.921279, 73.867875, 27.888905)" fill="none" stroke-linejoin="miter" d="M 42.404688 266.788835 L 122.708126 231.214978 L 204.515452 148.954144 L 286.322779 144.510591 L 366.626216 51.132396 " stroke="#319795" stroke-width="3" stroke-opacity="1" stroke-miterlimit="4"/></g><g clip-path="url(#d26ed277c7)"><path stroke-linecap="round" transform="matrix(0.922088, 0, 0, 0.921279, 73.867875, 27.888905)" fill="none" stroke-linejoin="miter" d="M 42.404688 306.806245 L 122.708126 297.91066 L 204.515452 204.536705 L 286.322779 233.436754 L 366.626216 144.510591 " stroke="#38b2ac" stroke-width="3" stroke-opacity="1" stroke-miterlimit="4"/></g><g clip-path="url(#d6c2a344c7)"><path stroke-linecap="round" transform="matrix(0.922088, 0, 0, 0.921279, 73.867875, 27.888905)" fill="none" stroke-linejoin="miter" d="M 42.404688 333.484518 L 122.708126 306.806245 L 204.515452 249.001907 L 286.322779 266.788835 L 366.626216 255.671475 " stroke="#4fd1c5" stroke-width="3" stroke-opacity="1" stroke-miterlimit="4"/></g></svg>